<?xml version="1.0" encoding="utf-8"?>
<!-- Generator: Adobe Illustrator 23.1.0, SVG Export Plug-In . SVG Version: 6.00 Build 0)  -->
<svg version="1.1" id="Layer_1" xmlns="http://www.w3.org/2000/svg" xmlns:xlink="http://www.w3.org/1999/xlink" x="0px" y="0px"
	 viewBox="0 0 1740 1080" style="enable-background:new 0 0 1740 1080;" xml:space="preserve">
<style type="text/css">
	.st0{fill:url(#SVGID_1_);}
	.st1{fill:url(#SVGID_2_);}
</style>
<g>
	<linearGradient id="SVGID_1_" gradientUnits="userSpaceOnUse" x1="21.2852" y1="748.3704" x2="994.4465" y2="146.822">
		<stop  offset="0" style="stop-color:#303F9F"/>
		<stop  offset="1" style="stop-color:#45CAFC"/>
	</linearGradient>
	<path class="st0" d="M980.8,180.2c18,11.7,37.6,18.9,58.7,21.7c21.1,2.8,41.8,0.7,62.1-6.2c23.3-7.9,41.9-22.4,55.6-43.5
		c13.7-21.1,17.1-42.1,10-62.9c-9.4-27.6-31.5-47.5-66.4-59.6c-34.9-12.1-68.3-12.8-100.3-2c-23.3,7.9-40.4,22.3-51.1,43
		c-10.8,20.8-12.6,41.6-5.5,62.5C950.4,152.8,962.8,168.5,980.8,180.2z"/>
	<linearGradient id="SVGID_2_" gradientUnits="userSpaceOnUse" x1="181.8333" y1="1008.0987" x2="1154.9945" y2="406.5503">
		<stop  offset="0" style="stop-color:#303F9F"/>
		<stop  offset="1" style="stop-color:#45CAFC"/>
	</linearGradient>
	<path class="st1" d="M1676.5,801.6c-74.5,63.5-123.9,95.2-148.3,95.2c-12.9,0-19.3-9.9-19.3-29.8c0-17.3,2.5-33.6,7.7-49
		c4.5-12.1,14.4-41.8,29.9-88.8c15.4-47,27.8-85.9,37.1-116.6c9.3-30.7,26.8-86.9,52.5-168.5s39.8-126.9,42.4-135.9
		c12.2-35.2,18.3-64.6,18.3-88.3c0-53.7-27.6-80.6-82.9-80.6c-63,0-130.1,26.3-201.4,78.8c-34.8,25.6-67.7,52.7-98.8,81.1
		c0.7-7.8,1-15.7,1-23.6c0-16.9-3.4-36-10.2-57.4c-6.8-21.4-17.5-40.7-32.1-57.9c-14.6-17.2-34.2-28.7-58.8-34.5
		c-6,31-18.2,56.9-34,73.1c-15.9,16.2-42.1,28.1-79.7,44.6l9.7,17.5c19.5-1.3,36.3,4.7,50.6,18c14.3,13.3,21.4,33.2,21.4,59.8
		c0,52.5-26.7,118.5-80.2,197.9c-53.5,79.4-139.6,190.1-258.2,332.1l-3.9-3.9c1.3-51.9,2.6-114.1,3.9-186.7
		c1.3-72.6,2.6-136.5,3.9-191.6l7.8-360.8h-62.2c-21.4,31.1-40.5,59.5-57.4,85.1c-16.9,25.6-32.6,49.6-47.2,72
		c-14.6,22.4-32.9,51.1-54.9,86.1c-22.1,35-42.5,66.8-61.3,95.3c-49.9,77.8-84.9,132.1-105,162.9c-20.1,30.8-35.5,54.5-46.2,71
		c-10.7,16.5-28.1,43.6-52,81.2l-3.9-3.9l3.9-66.1c1.3-17.5,2.9-52.7,4.9-105.5c1.9-52.8,2.9-107.1,2.9-162.9
		c0-93.4-4.5-169.2-13.6-227.6c-9.1-58.4-30.1-87.5-63.2-87.5c-15.6,0-36,8.3-61.3,24.8s-52.5,37.8-81.7,63.7
		c-29.2,25.9-55.9,51.5-80.2,76.8c-24.3,25.3-41,42.5-50.1,51.5l41.8,41.8c4.5-1.9,12-9.1,22.4-21.4c55.1-53.2,90.8-79.7,107-79.7
		c17.5,0,28.8,24.6,34,73.9c5.2,49.3,7.8,105,7.8,167.3c0,176.4-9.4,354.3-28.2,533.9h58.4c5.8-13.6,15.9-28.8,30.1-45.7l247-374.4
		c66.1-103.1,120.3-187.7,162.4-253.8l4.9,4.9L699,1058.5h58.4c4.5-4.5,26.7-28.4,66.6-71.5c39.9-43.1,82.8-91.1,128.9-143.9
		c46-52.8,95.3-111.2,147.8-175.1c32.5-39.6,59.9-74,81.9-103.2c43.6-48.5,122-165.6,154.8-194.5c33.4-29.4,64.7-53,93.9-70.6
		c29.2-17.6,51.9-26.4,68-26.4c8.3,0,15.2,3.4,20.7,10.1c5.5,6.7,8.2,15.8,8.2,27.3c0,24.3-8.7,63.6-26,118
		c-17.4,54.4-44.3,134.5-80.9,240.3c-36.6,105.9-62.5,183.2-77.5,232.2c-15.1,48.9-22.6,84.6-22.6,107c0,12.2,4.5,23.9,13.5,35
		c9,11.2,22.5,16.8,40.5,16.8c45.6,0,97.9-21.9,157-65.8c59.1-43.9,119.8-94.9,182-153.2L1676.5,801.6z"/>
</g>
</svg>
